<svg xmlns="http://www.w3.org/2000/svg" width="512" height="512" viewBox="0 0 512 512" fill="none">
  <defs>
    <linearGradient id="g1" x1="0%" y1="0%" x2="100%" y2="100%">
      <stop offset="0%" stop-color="#FF8E5E"/>
      <stop offset="100%" stop-color="#9d4319"/>
    </linearGradient>
    <linearGradient id="g2" x1="0%" y1="100%" x2="100%" y2="0%">
      <stop offset="0%" stop-color="#4FACFE"/>
      <stop offset="100%" stop-color="#00629f"/>
    </linearGradient>
    <linearGradient id="g3" x1="0%" y1="100%" x2="100%" y2="0%">
      <stop offset="0%" stop-color="#C896FF"/>
      <stop offset="100%" stop-color="#7e35ca"/>
    </linearGradient>
  </defs>
  <!-- Background -->
  <rect width="512" height="512" rx="112" fill="white"/>
  <!-- Subtle outer ring -->
  <rect x="16" y="16" width="480" height="480" rx="100" fill="url(#g1)" opacity="0.04"/>
  <rect x="16" y="16" width="480" height="480" rx="100" stroke="url(#g1)" stroke-width="2" stroke-opacity="0.1"/>
  <!-- Main L letterform -->
  <path d="M192 128h48v144h96v48H192V128z" fill="url(#g1)"/>
  <!-- Accent shape -->
  <path d="M320 112l64 64-64 64V112z" fill="url(#g2)" opacity="0.8"/>
  <!-- Accent dot -->
  <circle cx="368" cy="352" r="20" fill="url(#g3)"/>
  <!-- Gem/star accent -->
  <path d="M184 192l8-16 8 16-16-8 16-8-8 16-8-16 8 16-16 8z" fill="#FF8E5E" opacity="0.5"/>
</svg>
